<?xml version="1.0" encoding="UTF-8" standalone="no"?><!DOCTYPE svg PUBLIC "-//W3C//DTD SVG 1.1//EN" "http://www.w3.org/Graphics/SVG/1.1/DTD/svg11.dtd"><svg width="100%" height="100%" viewBox="0 0 612 612" version="1.1" xmlns="http://www.w3.org/2000/svg" xmlns:xlink="http://www.w3.org/1999/xlink" xml:space="preserve" style="fill-rule:evenodd;clip-rule:evenodd;stroke-linejoin:round;stroke-miterlimit:1.41421;"><g><path d="M612,510c0,56.1 -45.9,102 -102,102l-408,0c-56.1,0 -102,-45.9 -102,-102l0,-408c0,-56.1 45.9,-102 102,-102l408,0c56.1,0 102,45.9 102,102l0,408Z" style="fill:#4285f4;fill-rule:nonzero;"/><path d="M166.3,133l173.5,0c32,0 57.7,7.3 77,22c19.3,14.7 29,36.8 29,66.5c0,18 -4.4,33.4 -13.2,46.2c-8.8,12.8 -21.4,22.8 -37.8,29.8l0,1c22,4.7 38.7,15.1 50,31.2c11.3,16.2 17,36.4 17,60.8c0,14 -2.5,27.1 -7.5,39.2c-5,12.2 -12.8,22.7 -23.5,31.5c-10.7,8.8 -24.3,15.8 -41,21c-16.7,5.2 -36.5,7.8 -59.5,7.8l-164,0l0,-357Zm62.5,149.5l102,0c15,0 27.5,-4.2 37.5,-12.8c10,-8.6 15,-20.8 15,-36.8c0,-18 -4.5,-30.7 -13.5,-38c-9,-7.3 -22,-11 -39,-11l-102,0l0,98.6Zm0,156.5l110.5,0c19,0 33.8,-4.9 44.2,-14.8c10.5,-9.8 15.8,-23.8 15.8,-41.8c0,-17.7 -5.2,-31.2 -15.8,-40.8c-10.6,-9.6 -25.2,-14.2 -44.2,-14.2l-110.5,0l0,111.6Z" style="fill:#fff;fill-rule:nonzero;"/></g></svg>