<svg width="100%" height="100%" viewBox="0 0 1024 860" version="1.1" xmlns="http://www.w3.org/2000/svg" xmlns:xlink="http://www.w3.org/1999/xlink" xml:space="preserve" xmlns:serif="http://www.serif.com/" style="fill-rule:evenodd;clip-rule:evenodd;stroke-linejoin:round;stroke-miterlimit:1.41421;"><g><g><path id="b" d="M430.967,265.807l-322,216.395c-44.275,29.754 -44.275,78.443 0,108.197l322,216.395c44.275,29.754 116.725,29.754 161,0l322,-216.395c44.275,-29.754 44.275,-78.443 0,-108.197l-322,-216.395c-44.275,-29.754 -116.725,-29.754 -161,0Z" style="fill-rule:nonzero;"/><path id="b1" serif:id="b" d="M430.967,265.807l-322,216.395c-44.275,29.754 -44.275,78.443 0,108.197l322,216.395c44.275,29.754 116.725,29.754 161,0l322,-216.395c44.275,-29.754 44.275,-78.443 0,-108.197l-322,-216.395c-44.275,-29.754 -116.725,-29.754 -161,0Z" style="fill:#1368f7;fill-opacity:0.996078;fill-rule:nonzero;"/></g><g><path id="e" d="M430.967,155.807l-322,216.395c-44.275,29.754 -44.275,78.443 0,108.197l322,216.395c44.275,29.754 116.725,29.754 161,0l322,-216.395c44.275,-29.754 44.275,-78.443 0,-108.197l-322,-216.395c-44.275,-29.754 -116.725,-29.754 -161,0Z" style="fill-rule:nonzero;"/><path id="e1" serif:id="e" d="M430.967,155.807l-322,216.395c-44.275,29.754 -44.275,78.443 0,108.197l322,216.395c44.275,29.754 116.725,29.754 161,0l322,-216.395c44.275,-29.754 44.275,-78.443 0,-108.197l-322,-216.395c-44.275,-29.754 -116.725,-29.754 -161,0Z" style="fill:#2872f0;fill-rule:nonzero;"/></g><g><path id="h" d="M430.967,45.807l-322,216.395c-44.275,29.754 -44.275,78.443 0,108.197l322,216.395c44.275,29.754 116.725,29.754 161,0l322,-216.395c44.275,-29.754 44.275,-78.443 0,-108.197l-322,-216.395c-44.275,-29.754 -116.725,-29.754 -161,0Z" style="fill-rule:nonzero;"/><path id="h1" serif:id="h" d="M430.967,45.807l-322,216.395c-44.275,29.754 -44.275,78.443 0,108.197l322,216.395c44.275,29.754 116.725,29.754 161,0l322,-216.395c44.275,-29.754 44.275,-78.443 0,-108.197l-322,-216.395c-44.275,-29.754 -116.725,-29.754 -161,0Z" style="fill:#4286f4;fill-opacity:0.996078;fill-rule:nonzero;"/></g><path d="M558.273,447.667l-250.237,-168.167l97.982,-65.847c42.83,-28.784 96.789,-31.483 134.245,-6.311c26.044,17.502 31.214,46.615 11.444,65.724l1.389,0.934c38.324,-19.932 84.107,-18.527 117.396,3.845c44.046,29.6 38.671,68.419 -14.561,104.193l-97.658,65.629Zm-111.161,-116.657l49.942,-33.562c36.935,-24.822 42.31,-48.249 15.224,-66.451c-24.798,-16.665 -55.49,-14.453 -85.851,5.95l-59.641,40.081l80.326,53.982Zm176.532,35.663c37.63,-25.289 42.136,-48.832 13.203,-68.276c-28.932,-19.444 -64.163,-15.614 -104.042,11.186l-58.789,39.508l87.92,59.084l61.708,-41.502Z" style="fill:#fff;fill-rule:nonzero;"/></g></svg>
