<svg xmlns="http://www.w3.org/2000/svg"{{ with .width }} width="{{ . }}"{{ end }}{{ with .height }} height="{{ . }}"{{ end }}{{ with .class }} class="{{ . }}"{{ end }} viewBox="0 0 112 94" role="img" style="fill-rule:evenodd;clip-rule:evenodd;stroke-linejoin:round;stroke-miterlimit:2;"><title>{{ with .title }}{{ . }}{{ else }}TODC Bootstrap{{ end }}</title>
    <path d="M19.664,0.006C19.787,0.002 19.909,0 20.033,0L92.107,0C92.23,0 92.353,0.002 92.475,0.006L93.014,0.006C94.26,0.006 95.507,0.293 96.753,0.867C98,1.441 99.132,2.285 100.149,3.399C101.166,4.513 102.002,5.897 102.658,7.551C103.314,9.206 103.642,11.113 103.642,13.274L103.642,31.706C103.642,33.529 103.872,35.183 104.331,36.668C104.79,38.154 105.397,39.42 106.152,40.466C106.906,41.513 107.776,42.306 108.76,42.846C109.744,43.386 110.761,43.656 111.811,43.656L111.811,50.543C110.761,50.543 109.744,50.83 108.76,51.404C107.776,51.978 106.906,52.788 106.152,53.835C105.397,54.881 104.79,56.13 104.331,57.582C103.872,59.034 103.642,60.637 103.642,62.392L103.642,80.723C103.642,82.884 103.314,84.791 102.658,86.446C102.002,88.1 101.166,89.484 100.149,90.598C99.132,91.712 98,92.556 96.753,93.13C95.507,93.704 94.26,93.991 93.014,93.991L92.552,93.991C92.405,93.997 92.256,94 92.107,94L20.033,94C19.884,94 19.735,93.997 19.588,93.991L18.986,93.991C17.74,93.991 16.493,93.704 15.247,93.13C14,92.556 12.868,91.712 11.851,90.598C10.834,89.484 9.998,88.1 9.342,86.446C8.686,84.791 8.358,82.884 8.358,80.723L8.358,62.392C8.358,60.57 8.128,58.915 7.669,57.43C7.21,55.945 6.603,54.696 5.848,53.683C5.094,52.67 4.224,51.894 3.24,51.353C2.256,50.813 1.239,50.543 0.189,50.543L0.189,43.656C1.239,43.656 2.256,43.369 3.24,42.796C4.224,42.222 5.094,41.411 5.848,40.365C6.603,39.318 7.21,38.052 7.669,36.567C8.128,35.082 8.358,33.461 8.358,31.706L8.358,13.274C8.358,11.113 8.686,9.206 9.342,7.551C9.998,5.897 10.834,4.513 11.851,3.399C12.868,2.285 14,1.441 15.247,0.867C16.493,0.293 17.74,0.006 18.986,0.006L19.664,0.006ZM37.902,72.413L37.902,21.235L54.97,21.235C60.883,21.235 65.368,22.424 68.424,24.803C71.481,27.181 73.01,30.667 73.01,35.26C73.01,37.767 72.396,39.976 71.169,41.886C69.942,43.795 68.235,45.195 66.048,46.086C68.547,46.742 70.516,48.066 71.955,50.058C73.394,52.05 74.114,54.487 74.114,57.369C74.114,62.29 72.619,66.016 69.629,68.547C66.639,71.078 62.378,72.366 56.845,72.413L37.902,72.413ZM47.942,50.128L47.942,63.942L56.543,63.942C58.908,63.942 60.755,63.35 62.082,62.167C63.41,60.984 64.074,59.349 64.074,57.264C64.074,52.577 61.764,50.199 57.146,50.128L47.942,50.128ZM47.942,42.676L55.372,42.676C60.437,42.583 62.969,40.462 62.969,36.314C62.969,33.994 62.328,32.325 61.045,31.305C59.762,30.286 57.737,29.776 54.97,29.776L47.942,29.776L47.942,42.676Z" style="fill:white;"/>
    <g transform="matrix(5.02256e-17,-0.820246,0.585091,3.58265e-17,-113.902,187.233)">
        <g transform="matrix(17.8877,0,0,17.8877,150.843,274.788)">
            <path d="M0.209,-0.657L0.209,-0.528L0.303,-0.528L0.303,-0.44L0.209,-0.44L0.209,-0.146C0.209,-0.125 0.213,-0.111 0.221,-0.102C0.229,-0.093 0.244,-0.088 0.264,-0.088C0.278,-0.088 0.292,-0.09 0.306,-0.093L0.306,-0.001C0.279,0.006 0.253,0.01 0.228,0.01C0.136,0.01 0.091,-0.041 0.091,-0.141L0.091,-0.44L0.004,-0.44L0.004,-0.528L0.091,-0.528L0.091,-0.657L0.209,-0.657Z" style="fill:white;fill-rule:nonzero;"/>
        </g>
        <g transform="matrix(17.8877,0,0,17.8877,158.31,274.788)">
            <path d="M0.039,-0.269C0.039,-0.321 0.049,-0.367 0.069,-0.409C0.09,-0.45 0.119,-0.482 0.156,-0.505C0.193,-0.527 0.236,-0.538 0.284,-0.538C0.355,-0.538 0.413,-0.515 0.457,-0.469C0.502,-0.423 0.526,-0.362 0.529,-0.287L0.53,-0.259C0.53,-0.207 0.52,-0.16 0.5,-0.119C0.48,-0.078 0.451,-0.046 0.414,-0.024C0.377,-0.001 0.333,0.01 0.285,0.01C0.21,0.01 0.15,-0.015 0.106,-0.065C0.061,-0.114 0.039,-0.181 0.039,-0.263L0.039,-0.269ZM0.157,-0.259C0.157,-0.204 0.168,-0.162 0.191,-0.131C0.213,-0.1 0.245,-0.085 0.285,-0.085C0.325,-0.085 0.356,-0.101 0.378,-0.132C0.4,-0.163 0.412,-0.209 0.412,-0.269C0.412,-0.322 0.4,-0.365 0.377,-0.396C0.354,-0.427 0.323,-0.443 0.284,-0.443C0.245,-0.443 0.214,-0.427 0.191,-0.397C0.169,-0.366 0.157,-0.32 0.157,-0.259Z" style="fill:white;fill-rule:nonzero;"/>
        </g>
        <g transform="matrix(17.8877,0,0,17.8877,170.283,274.788)">
            <path d="M0.039,-0.268C0.039,-0.349 0.057,-0.415 0.095,-0.464C0.133,-0.513 0.184,-0.538 0.247,-0.538C0.303,-0.538 0.348,-0.519 0.383,-0.479L0.383,-0.75L0.501,-0.75L0.501,0L0.394,0L0.388,-0.055C0.353,-0.012 0.305,0.01 0.246,0.01C0.184,0.01 0.134,-0.015 0.096,-0.065C0.058,-0.115 0.039,-0.182 0.039,-0.268ZM0.157,-0.258C0.157,-0.204 0.168,-0.162 0.188,-0.132C0.209,-0.102 0.238,-0.087 0.276,-0.087C0.325,-0.087 0.36,-0.109 0.383,-0.152L0.383,-0.377C0.361,-0.42 0.326,-0.441 0.277,-0.441C0.239,-0.441 0.209,-0.426 0.188,-0.395C0.168,-0.365 0.157,-0.319 0.157,-0.258Z" style="fill:white;fill-rule:nonzero;"/>
        </g>
        <g transform="matrix(17.8877,0,0,17.8877,182.169,274.788)">
            <path d="M0.278,-0.085C0.307,-0.085 0.332,-0.094 0.352,-0.111C0.371,-0.128 0.382,-0.149 0.383,-0.175L0.495,-0.175C0.493,-0.142 0.483,-0.111 0.464,-0.083C0.445,-0.054 0.419,-0.032 0.386,-0.015C0.353,0.001 0.317,0.01 0.279,0.01C0.205,0.01 0.147,-0.014 0.104,-0.062C0.06,-0.11 0.039,-0.176 0.039,-0.26L0.039,-0.272C0.039,-0.353 0.06,-0.417 0.103,-0.466C0.146,-0.514 0.205,-0.538 0.279,-0.538C0.342,-0.538 0.393,-0.52 0.432,-0.483C0.472,-0.447 0.493,-0.398 0.495,-0.339L0.383,-0.339C0.382,-0.369 0.371,-0.394 0.352,-0.414C0.332,-0.433 0.308,-0.443 0.278,-0.443C0.239,-0.443 0.21,-0.429 0.189,-0.401C0.168,-0.373 0.158,-0.331 0.157,-0.274L0.157,-0.255C0.157,-0.198 0.168,-0.155 0.188,-0.127C0.209,-0.099 0.239,-0.085 0.278,-0.085Z" style="fill:white;fill-rule:nonzero;"/>
        </g>
    </g>
</svg>
