<svg xmlns="http://www.w3.org/2000/svg"{{ with .width }} width="{{ . }}"{{ end }}{{ with .height }} height="{{ . }}"{{ end }}{{ with .class }} class="{{ . }}"{{ end }} role="img" viewBox="0 0 900 800" style="fill-rule:evenodd;clip-rule:evenodd;stroke-linejoin:round;stroke-miterlimit:2;"><title>{{ with .title }}{{ . }}{{ else }}TODC Bootstrap{{ end }}</title>
    <g>
        <path d="M138,539L236,539L236,585L138,585L138,539ZM238,537L238,587L136,587L136,537L238,537Z" style="fill:rgb(250,123,23);"/>
        <path d="M238,539L327,539C330.84,539 334,542.16 334,546L334,578C334,581.84 330.84,585 327,585L238,585L238,539ZM327,537C331.937,537 336,541.063 336,546L336,578C336,582.937 331.937,587 327,587L236,587L236,537L327,537ZM45.184,537C40.112,537 36,541.029 36,546L36,578C36,582.971 40.112,587 45.184,587L136,587L136,537L45.184,537ZM60,558C57.806,558 56,559.806 56,562C56,564.194 57.806,566 60,566L112,566C114.194,566 116,564.194 116,562C116,559.806 114.194,558 112,558L60,558Z" style="fill:rgb(250,123,23);"/>
        <path d="M115,400C119.389,400 123,396.389 123,392C123,387.611 119.389,384 115,384C110.611,384 107,387.611 107,392C107,396.389 110.611,400 115,400ZM115,402C120.523,402 125,397.523 125,392C125,386.477 120.523,382 115,382C109.477,382 105,386.477 105,392C105,397.523 109.477,402 115,402ZM85,402C90.523,402 95,397.523 95,392C95,386.477 90.523,382 85,382C79.477,382 75,386.477 75,392C75,397.523 79.477,402 85,402ZM85,397C87.743,397 90,394.743 90,392C90,389.257 87.743,387 85,387C82.257,387 80,389.257 80,392C80,394.743 82.257,397 85,397ZM138,382C135.806,382 134,383.806 134,386L134,398C134,400.194 135.806,402 138,402L150,402C152.194,402 154,400.194 154,398L154,386C154,383.806 152.194,382 150,382L138,382ZM149.676,387.324C149.469,387.117 149.189,387.001 148.896,387.001C148.588,387.001 148.294,387.13 148.085,387.357L142.97,393.874L139.886,390.79C139.68,390.591 139.404,390.479 139.118,390.479C138.512,390.479 138.013,390.978 138.013,391.584C138.013,391.871 138.124,392.147 138.324,392.353L142.222,396.251C142.429,396.458 142.71,396.574 143.002,396.574C143.309,396.574 143.602,396.446 143.811,396.221L149.692,388.87C150.107,388.439 150.099,387.746 149.676,387.324ZM180,384L168,384C166.903,384 166,384.903 166,386L166,398C166,399.097 166.903,400 168,400L180,400C181.097,400 182,399.097 182,398L182,386C182,384.903 181.097,384 180,384ZM168,382C165.806,382 164,383.806 164,386L164,398C164,400.194 165.806,402 168,402L180,402C182.194,402 184,400.194 184,398L184,386C184,383.806 182.194,382 180,382L168,382Z" style="fill:rgb(26,115,232);"/>
        <path d="M473,554C473,548.477 477.477,544 483,544L743,544C748.523,544 753,548.477 753,554L753,684.125C753,689.648 748.523,694.125 743,694.125L626.646,694.125C624.533,694.125 622.504,694.962 621.006,696.452L614.41,703.008C613.63,703.784 612.37,703.784 611.59,703.008L604.994,696.452C603.496,694.962 601.467,694.125 599.354,694.125L483,694.125C477.477,694.125 473,689.648 473,684.125L473,554ZM483,546C478.611,546 475,549.611 475,554L475,583L751,583L751,554C751,549.611 747.389,546 743,546L483,546ZM751,585L475,585L475,684.125C475,688.514 478.611,692.125 483,692.125L599.354,692.125C601.995,692.125 604.531,693.171 606.404,695.033L613,701.59L619.596,695.033C621.469,693.171 624.005,692.125 626.646,692.125L743,692.125C747.389,692.125 751,688.514 751,684.125L751,585Z" style="fill:rgb(189,189,189);"/>
        <path d="M503,74C503,68.477 507.477,64 513,64L773,64C778.523,64 783,68.477 783,74L783,234C783,239.523 778.523,244 773,244L513,244C507.477,244 503,239.523 503,234L503,74ZM513,66C508.611,66 505,69.611 505,74L505,103L781,103L781,74C781,69.611 777.389,66 773,66L513,66ZM781,105L505,105L505,202L781,202L781,105ZM781,204L644,204L644,242L773,242C777.389,242 781,238.389 781,234L781,204ZM642,242L642,204L505,204L505,234C505,238.389 508.611,242 513,242L642,242Z" style="fill:rgb(26,115,232);"/>
        <path d="M756.293,79.293C756.681,78.905 757.319,78.905 757.707,79.293L762,83.586L766.293,79.293C766.481,79.098 766.741,78.988 767.012,78.988C767.561,78.988 768.012,79.439 768.012,79.988C768.012,80.259 767.902,80.519 767.707,80.707L763.414,85L767.707,89.293C767.902,89.481 768.012,89.741 768.012,90.012C768.012,90.561 767.561,91.012 767.012,91.012C766.741,91.012 766.481,90.902 766.293,90.707L762,86.414L757.707,90.707C757.519,90.902 757.259,91.012 756.988,91.012C756.439,91.012 755.988,90.561 755.988,90.012C755.988,89.741 756.098,89.481 756.293,89.293L760.586,85L756.293,80.707C755.905,80.319 755.905,79.681 756.293,79.293Z" style="fill:rgb(26,115,232);"/>
    </g>
    <path d="M673,223C673,220.806 674.806,219 677,219L749,219C751.194,219 753,220.806 753,223C753,225.194 751.194,227 749,227L677,227C674.806,227 673,225.194 673,223ZM533,223C533,220.806 534.806,219 537,219L609,219C611.194,219 613,220.806 613,223C613,225.194 611.194,227 609,227L537,227C534.806,227 533,225.194 533,223Z" style="fill:rgb(26,115,232);fill-rule:nonzero;"/>
    <path d="M757,432L475,432C471.16,432 468,435.16 468,439L468,471C468,474.84 471.16,478 475,478L757,478C760.84,478 764,474.84 764,471L764,439C764,435.16 760.84,432 757,432ZM475,430C470.063,430 466,434.063 466,439L466,471C466,475.937 470.063,480 475,480L757,480C761.937,480 766,475.937 766,471L766,439C766,434.063 761.937,430 757,430L475,430ZM785,430C780.063,430 776,434.063 776,439L776,471C776,475.937 780.063,480 785,480L857,480C861.937,480 866,475.937 866,471L866,439C866,434.063 861.937,430 857,430L785,430ZM795,451C792.806,451 791,452.806 791,455C791,457.194 792.806,459 795,459L847,459C849.194,459 851,457.194 851,455C851,452.806 849.194,451 847,451L795,451Z" style="fill:rgb(233,30,99);"/>
    <path d="M825,336L541,336C537.708,336 535,338.708 535,342C535,345.292 537.708,348 541,348L825,348C828.292,348 831,345.292 831,342C831,338.708 828.292,336 825,336ZM541,334C536.611,334 533,337.611 533,342C533,346.389 536.611,350 541,350L825,350C829.389,350 833,346.389 833,342C833,337.611 829.389,334 825,334L541,334Z" style="fill:rgb(217,48,37);"/>
    <path d="M533,342C533,337.611 536.611,334 541,334L783,334L783,350L541,350C536.611,350 533,346.389 533,342Z" style="fill:rgb(217,48,37);fill-rule:nonzero;"/>
    <path d="M57,271C53.708,271 51,273.708 51,277L51,305C51,308.292 53.708,311 57,311L138.515,311C140.105,311 141.632,311.633 142.757,312.757L150.293,320.293C150.681,320.681 151.319,320.681 151.707,320.293L159.243,312.757C160.368,311.633 161.895,311 163.485,311L245,311C248.292,311 251,308.292 251,305L251,277C251,273.708 248.292,271 245,271L57,271ZM90,287C87.806,287 86,288.806 86,291C86,293.194 87.806,295 90,295L212,295C214.194,295 216,293.194 216,291C216,288.806 214.194,287 212,287L90,287Z" style="fill:rgb(189,189,189);"/>
    <path d="M253,157C253,151.477 248.523,147 243,147L141,147C135.477,147 131,151.477 131,157L131,196C131,196.549 131.451,197 132,197C132.549,197 133,196.549 133,196L133,157C133,152.611 136.611,149 141,149L243,149C247.389,149 251,152.611 251,157L251,196C251,196.549 251.451,197 252,197L450,197C450.549,197 451,196.549 451,196C451,195.451 450.549,195 450,195L253,195L253,157Z" style="fill:rgb(30,142,62);"/>
    <path d="M151,174C151,171.806 152.806,170 155,170L227,170C229.194,170 231,171.806 231,174C231,176.194 229.194,178 227,178L155,178C152.806,178 151,176.194 151,174Z" style="fill:rgb(30,142,62);fill-rule:nonzero;"/>
    <g transform="matrix(1.50952,-0.404284,0.404284,1.50952,81.2208,231.022)">
        <g transform="matrix(0.997843,0,0,1.00162,-21.7274,-2.20275)">
            <path d="M355.745,62.657C355.745,46.251 342.375,32.931 325.907,32.931L118.863,32.931C102.395,32.931 89.025,46.251 89.025,62.657L89.025,272.215C89.025,288.621 102.395,301.94 118.863,301.94L325.907,301.94C342.375,301.94 355.745,288.621 355.745,272.215L355.745,62.657Z" style="fill:rgb(26,115,232);"/>
        </g>
        <g transform="matrix(0.986388,0,0,1,0.809138,0)">
            <rect x="59.442" y="154.488" width="288.124" height="16.929" style="fill:rgb(26,115,232);"/>
        </g>
        <g>
            <g transform="matrix(0.941487,0,0,0.98881,-16.421,32.3738)">
                <g transform="matrix(208.682,0,0,208.682,161.499,208.307)">
                    <path d="M0.063,0L0.063,-0.711L0.313,-0.711C0.399,-0.711 0.464,-0.694 0.509,-0.661C0.553,-0.628 0.576,-0.58 0.576,-0.516C0.576,-0.481 0.567,-0.451 0.549,-0.424C0.531,-0.398 0.506,-0.378 0.474,-0.366C0.511,-0.357 0.539,-0.338 0.56,-0.311C0.581,-0.283 0.592,-0.249 0.592,-0.209C0.592,-0.141 0.57,-0.089 0.526,-0.054C0.483,-0.019 0.421,-0.001 0.34,0L0.063,0ZM0.21,-0.31L0.21,-0.118L0.335,-0.118C0.37,-0.118 0.397,-0.126 0.416,-0.142C0.436,-0.159 0.445,-0.181 0.445,-0.21C0.445,-0.276 0.412,-0.309 0.344,-0.31L0.21,-0.31ZM0.21,-0.413L0.318,-0.413C0.392,-0.414 0.429,-0.444 0.429,-0.501C0.429,-0.534 0.42,-0.557 0.401,-0.571C0.382,-0.585 0.353,-0.592 0.313,-0.592L0.21,-0.592L0.21,-0.413Z" style="fill:white;fill-rule:nonzero;"/>
                </g>
            </g>
            <g transform="matrix(1.43969e-16,-2.35118,1.67713,1.02695e-16,-288.244,566.969)">
                <g transform="matrix(17.8877,0,0,17.8877,150.843,274.788)">
                    <path d="M0.209,-0.657L0.209,-0.528L0.303,-0.528L0.303,-0.44L0.209,-0.44L0.209,-0.146C0.209,-0.125 0.213,-0.111 0.221,-0.102C0.229,-0.093 0.244,-0.088 0.264,-0.088C0.278,-0.088 0.292,-0.09 0.306,-0.093L0.306,-0.001C0.279,0.006 0.253,0.01 0.228,0.01C0.136,0.01 0.091,-0.041 0.091,-0.141L0.091,-0.44L0.004,-0.44L0.004,-0.528L0.091,-0.528L0.091,-0.657L0.209,-0.657Z" style="fill:rgb(26,115,232);fill-rule:nonzero;"/>
                </g>
                <g transform="matrix(17.8877,0,0,17.8877,158.31,274.788)">
                    <path d="M0.039,-0.269C0.039,-0.321 0.049,-0.367 0.069,-0.409C0.09,-0.45 0.119,-0.482 0.156,-0.505C0.193,-0.527 0.236,-0.538 0.284,-0.538C0.355,-0.538 0.413,-0.515 0.457,-0.469C0.502,-0.423 0.526,-0.362 0.529,-0.287L0.53,-0.259C0.53,-0.207 0.52,-0.16 0.5,-0.119C0.48,-0.078 0.451,-0.046 0.414,-0.024C0.377,-0.001 0.333,0.01 0.285,0.01C0.21,0.01 0.15,-0.015 0.106,-0.065C0.061,-0.114 0.039,-0.181 0.039,-0.263L0.039,-0.269ZM0.157,-0.259C0.157,-0.204 0.168,-0.162 0.191,-0.131C0.213,-0.1 0.245,-0.085 0.285,-0.085C0.325,-0.085 0.356,-0.101 0.378,-0.132C0.4,-0.163 0.412,-0.209 0.412,-0.269C0.412,-0.322 0.4,-0.365 0.377,-0.396C0.354,-0.427 0.323,-0.443 0.284,-0.443C0.245,-0.443 0.214,-0.427 0.191,-0.397C0.169,-0.366 0.157,-0.32 0.157,-0.259Z" style="fill:rgb(26,115,232);fill-rule:nonzero;"/>
                </g>
                <g transform="matrix(17.8877,0,0,17.8877,170.283,274.788)">
                    <path d="M0.039,-0.268C0.039,-0.349 0.057,-0.415 0.095,-0.464C0.133,-0.513 0.184,-0.538 0.247,-0.538C0.303,-0.538 0.348,-0.519 0.383,-0.479L0.383,-0.75L0.501,-0.75L0.501,0L0.394,0L0.388,-0.055C0.353,-0.012 0.305,0.01 0.246,0.01C0.184,0.01 0.134,-0.015 0.096,-0.065C0.058,-0.115 0.039,-0.182 0.039,-0.268ZM0.157,-0.258C0.157,-0.204 0.168,-0.162 0.188,-0.132C0.209,-0.102 0.238,-0.087 0.276,-0.087C0.325,-0.087 0.36,-0.109 0.383,-0.152L0.383,-0.377C0.361,-0.42 0.326,-0.441 0.277,-0.441C0.239,-0.441 0.209,-0.426 0.188,-0.395C0.168,-0.365 0.157,-0.319 0.157,-0.258Z" style="fill:rgb(26,115,232);fill-rule:nonzero;"/>
                </g>
                <g transform="matrix(17.8877,0,0,17.8877,182.169,274.788)">
                    <path d="M0.278,-0.085C0.307,-0.085 0.332,-0.094 0.352,-0.111C0.371,-0.128 0.382,-0.149 0.383,-0.175L0.495,-0.175C0.493,-0.142 0.483,-0.111 0.464,-0.083C0.445,-0.054 0.419,-0.032 0.386,-0.015C0.353,0.001 0.317,0.01 0.279,0.01C0.205,0.01 0.147,-0.014 0.104,-0.062C0.06,-0.11 0.039,-0.176 0.039,-0.26L0.039,-0.272C0.039,-0.353 0.06,-0.417 0.103,-0.466C0.146,-0.514 0.205,-0.538 0.279,-0.538C0.342,-0.538 0.393,-0.52 0.432,-0.483C0.472,-0.447 0.493,-0.398 0.495,-0.339L0.383,-0.339C0.382,-0.369 0.371,-0.394 0.352,-0.414C0.332,-0.433 0.308,-0.443 0.278,-0.443C0.239,-0.443 0.21,-0.429 0.189,-0.401C0.168,-0.373 0.158,-0.331 0.157,-0.274L0.157,-0.255C0.157,-0.198 0.168,-0.155 0.188,-0.127C0.209,-0.099 0.239,-0.085 0.278,-0.085Z" style="fill:rgb(26,115,232);fill-rule:nonzero;"/>
                </g>
            </g>
        </g>
        <g transform="matrix(0.779676,0,0,0.802366,19.6289,3.46435)">
            <g transform="matrix(361.807,0,0,361.807,333.382,298.55)">
                <path d="M0.024,0.137L0.024,0.197L0.094,0.197C0.107,0.197 0.119,0.194 0.132,0.189C0.145,0.183 0.156,0.174 0.167,0.164C0.177,0.153 0.185,0.139 0.192,0.123C0.199,0.106 0.202,0.087 0.202,0.066L0.202,-0.115C0.202,-0.132 0.204,-0.148 0.209,-0.163C0.214,-0.177 0.22,-0.189 0.228,-0.2C0.235,-0.21 0.244,-0.218 0.254,-0.224C0.264,-0.229 0.274,-0.232 0.285,-0.232L0.285,-0.3C0.274,-0.3 0.264,-0.303 0.254,-0.308C0.244,-0.313 0.235,-0.321 0.228,-0.332C0.22,-0.342 0.214,-0.354 0.209,-0.369C0.204,-0.384 0.202,-0.4 0.202,-0.418L0.202,-0.6C0.202,-0.621 0.199,-0.64 0.192,-0.657C0.185,-0.673 0.177,-0.687 0.167,-0.698C0.156,-0.708 0.145,-0.717 0.132,-0.723C0.119,-0.728 0.107,-0.731 0.094,-0.731L0.024,-0.731L0.024,-0.671L0.074,-0.671C0.084,-0.671 0.092,-0.669 0.098,-0.664C0.104,-0.659 0.109,-0.652 0.113,-0.644C0.116,-0.635 0.119,-0.626 0.12,-0.616C0.121,-0.605 0.122,-0.594 0.122,-0.583L0.122,-0.402C0.122,-0.377 0.126,-0.356 0.133,-0.339C0.14,-0.322 0.148,-0.309 0.157,-0.299C0.166,-0.288 0.176,-0.281 0.186,-0.276C0.195,-0.271 0.203,-0.269 0.209,-0.268L0.209,-0.265C0.203,-0.264 0.195,-0.26 0.186,-0.255C0.176,-0.25 0.166,-0.242 0.157,-0.231C0.148,-0.22 0.14,-0.207 0.133,-0.191C0.126,-0.174 0.122,-0.154 0.122,-0.131L0.122,0.051C0.122,0.062 0.121,0.072 0.12,0.083C0.119,0.093 0.116,0.102 0.113,0.11C0.109,0.118 0.104,0.125 0.098,0.13C0.092,0.135 0.084,0.137 0.074,0.137L0.024,0.137Z" style="fill:rgb(26,115,232);fill-rule:nonzero;"/>
            </g>
        </g>
        <g transform="matrix(0.779676,0,0,0.802366,-233.47,3.46435)">
            <g transform="matrix(361.807,0,0,361.807,333.382,298.55)">
                <path d="M0.309,-0.671L0.309,-0.731L0.239,-0.731C0.226,-0.731 0.214,-0.728 0.201,-0.723C0.188,-0.717 0.177,-0.708 0.167,-0.698C0.156,-0.687 0.148,-0.673 0.141,-0.657C0.134,-0.64 0.131,-0.621 0.131,-0.6L0.131,-0.418C0.131,-0.401 0.129,-0.385 0.124,-0.37C0.119,-0.355 0.113,-0.343 0.106,-0.333C0.098,-0.322 0.089,-0.314 0.079,-0.309C0.069,-0.303 0.059,-0.3 0.048,-0.3L0.048,-0.232C0.059,-0.232 0.069,-0.229 0.079,-0.224C0.089,-0.219 0.098,-0.211 0.106,-0.201C0.113,-0.191 0.119,-0.179 0.124,-0.164C0.129,-0.149 0.131,-0.133 0.131,-0.115L0.131,0.066C0.131,0.087 0.134,0.106 0.141,0.123C0.148,0.139 0.156,0.153 0.167,0.164C0.177,0.174 0.188,0.183 0.201,0.189C0.214,0.194 0.226,0.197 0.239,0.197L0.309,0.197L0.309,0.137L0.259,0.137C0.249,0.137 0.241,0.135 0.235,0.13C0.229,0.125 0.224,0.118 0.221,0.11C0.217,0.101 0.214,0.092 0.213,0.082C0.212,0.071 0.211,0.061 0.211,0.051L0.211,-0.131C0.211,-0.156 0.208,-0.177 0.201,-0.194C0.194,-0.211 0.185,-0.224 0.176,-0.235C0.167,-0.245 0.157,-0.252 0.148,-0.257C0.138,-0.262 0.13,-0.264 0.124,-0.265L0.124,-0.268C0.13,-0.269 0.138,-0.273 0.148,-0.278C0.157,-0.283 0.167,-0.291 0.176,-0.302C0.185,-0.313 0.194,-0.326 0.201,-0.343C0.208,-0.359 0.211,-0.379 0.211,-0.402L0.211,-0.585C0.211,-0.596 0.212,-0.606 0.213,-0.617C0.214,-0.627 0.217,-0.636 0.221,-0.644C0.224,-0.652 0.229,-0.659 0.235,-0.664C0.241,-0.669 0.249,-0.671 0.259,-0.671L0.309,-0.671Z" style="fill:rgb(26,115,232);fill-rule:nonzero;"/>
            </g>
        </g>
    </g>
</svg>
