<svg xmlns="http://www.w3.org/2000/svg" fill-rule="evenodd" stroke-linejoin="round" stroke-miterlimit="2" clip-rule="evenodd" viewBox="0 0 512 408">
  <path fill="#1a73e8" d="M457.805 45.084C457.805 20.202 437.603 0 412.721 0H99.886C75.004 0 54.802 20.202 54.802 45.084v317.832c0 24.882 20.202 45.084 45.084 45.084h312.835c24.882 0 45.084-20.202 45.084-45.084z"/>
  <path fill="#1a73e8" d="M43.198 187.319h430.345v25.635H43.198z"/>
  <g fill-rule="nonzero">
    <path fill="#1a73e8" d="M386.755 381.584v26.375h29.901c5.41 0 10.821-1.245 16.231-3.736 5.411-2.491 10.323-6.154 14.737-10.99 4.414-4.835 8.045-10.843 10.892-18.022 2.848-7.18 4.272-15.459 4.272-24.837V270.81c0-7.619.997-14.579 2.99-20.88s4.627-11.722 7.902-16.265c3.275-4.542 7.048-8.059 11.32-10.55 4.271-2.491 8.685-3.736 13.241-3.736v-29.892c-4.556 0-8.97-1.172-13.241-3.516-4.272-2.345-8.045-5.788-11.32-10.33-3.275-4.543-5.909-10.037-7.902-16.485-1.993-6.447-2.99-13.627-2.99-21.539V57.613c0-9.378-1.424-17.656-4.272-24.836-2.847-7.18-6.478-13.188-10.892-18.023-4.414-4.836-9.326-8.499-14.737-10.99-5.41-2.491-10.821-3.736-16.231-3.736h-29.901v26.375h21.358c4.271 0 7.688 1.099 10.251 3.297s4.628 5.128 6.194 8.791 2.634 7.766 3.204 12.309c.569 4.542.854 9.304.854 14.286v79.564c0 11.136 1.495 20.367 4.485 27.694 2.99 7.326 6.478 13.26 10.465 17.803 3.987 4.542 8.045 7.839 12.174 9.89 4.129 2.052 7.475 3.224 10.038 3.517v1.319c-2.563.586-5.909 2.051-10.038 4.396-4.129 2.344-8.187 5.861-12.174 10.55-3.987 4.688-7.475 10.623-10.465 17.803-2.99 7.179-4.485 15.898-4.485 26.155v80.003a111.3 111.3 0 01-.854 13.847c-.57 4.543-1.638 8.572-3.204 12.089-1.566 3.516-3.631 6.374-6.194 8.572s-5.98 3.296-10.251 3.296zM125.245 26.403V.028H95.344c-5.41 0-10.821 1.245-16.231 3.736-5.411 2.491-10.323 6.154-14.737 10.99-4.414 4.835-8.045 10.843-10.892 18.023-2.848 7.18-4.272 15.458-4.272 24.836v80.004c0 7.619-.997 14.653-2.99 21.1s-4.627 11.942-7.902 16.484-7.048 8.059-11.32 10.55c-4.271 2.491-8.685 3.736-13.241 3.736v29.892c4.556 0 8.97 1.172 13.241 3.517 4.272 2.344 8.045 5.714 11.32 10.11s5.909 9.817 7.902 16.264c1.993 6.448 2.99 13.628 2.99 21.54v79.564c0 9.378 1.424 17.657 4.272 24.837 2.847 7.179 6.478 13.187 10.892 18.022 4.414 4.836 9.326 8.499 14.737 10.99 5.41 2.491 10.821 3.736 16.231 3.736h29.901v-26.375h-21.358c-4.271 0-7.688-1.098-10.251-3.296s-4.628-5.129-6.194-8.792-2.634-7.766-3.204-12.308a107.824 107.824 0 01-.854-13.408v-80.003c0-11.136-1.495-20.368-4.485-27.694s-6.478-13.261-10.465-17.803-8.045-7.839-12.174-9.891c-4.129-2.051-7.475-3.223-10.038-3.516v-1.319c2.563-.586 5.909-2.051 10.038-4.396 4.129-2.344 8.187-5.861 12.174-10.55s7.475-10.623 10.465-17.803 4.485-15.898 4.485-26.155V64.207c0-4.689.285-9.305.854-13.847.57-4.542 1.638-8.572 3.204-12.089 1.566-3.516 3.631-6.373 6.194-8.571s5.98-3.297 10.251-3.297h21.358z"/>
    <path fill="#fff" d="M177.446 314.305V92.168h74.085c25.663 0 45.129 5.162 58.396 15.486 13.268 10.323 19.902 25.453 19.902 45.388 0 10.883-2.664 20.47-7.99 28.759s-12.735 14.367-22.225 18.232c10.846 2.848 19.392 8.594 25.639 17.24 6.246 8.645 9.369 19.223 9.369 31.733 0 21.36-6.488 37.532-19.465 48.516-12.977 10.985-31.474 16.579-55.491 16.783zm43.579-96.727v59.958h37.333c10.266 0 18.279-2.568 24.042-7.704 5.762-5.137 8.643-12.231 8.643-21.283 0-20.342-10.023-30.666-30.07-30.971zm0-32.344h32.249c21.983-.407 32.975-9.612 32.975-27.615 0-10.069-2.784-17.316-8.353-21.74-5.568-4.425-14.357-6.637-26.365-6.637h-30.506z"/>
    <path fill="#1a73e8" d="M186.241 261.534h5.834v-5.94h3.993v5.94h13.397c.917 0 1.578-.254 1.985-.762s.61-1.415.61-2.721c0-.871-.074-1.752-.222-2.643h4.17c.34 1.72.51 3.379.51 4.975 0 5.805-2.284 8.707-6.853 8.707h-13.597v5.535h-3.993v-5.535h-5.834zm17.612-15.701c-2.351 0-4.469-.653-6.355-1.959-1.885-1.306-3.334-3.141-4.347-5.504-1.013-2.364-1.52-5.079-1.52-8.147 0-4.54 1.043-8.225 3.128-11.055s4.85-4.359 8.296-4.587l1.264-.031c2.366 0 4.48.638 6.344 1.913 1.863 1.275 3.305 3.099 4.325 5.473 1.02 2.373 1.53 5.115 1.53 8.224 0 4.748-1.127 8.546-3.382 11.397-2.255 2.85-5.261 4.276-9.017 4.276zm.466-7.557c2.469 0 4.403-.715 5.8-2.145 1.398-1.431 2.096-3.421 2.096-5.971s-.709-4.534-2.129-5.954c-1.42-1.421-3.497-2.131-6.233-2.131-2.425 0-4.347.731-5.767 2.193-1.42 1.461-2.129 3.446-2.129 5.955 0 2.466.698 4.426 2.096 5.877 1.397 1.451 3.486 2.176 6.266 2.176zm-.422-35.069c-3.696 0-6.665-1.203-8.905-3.608-2.24-2.404-3.361-5.628-3.361-9.67 0-3.566.888-6.448 2.662-8.645h-12.288v-7.556h34.07v6.841l-2.484.373c1.951 2.26 2.927 5.276 2.927 9.049 0 3.939-1.131 7.126-3.393 9.562-2.263 2.436-5.338 3.654-9.228 3.654zm.466-7.557c2.44 0 4.344-.658 5.712-1.974 1.368-1.317 2.052-3.188 2.052-5.613 0-3.089-.984-5.349-2.95-6.779h-10.248c-1.922 1.389-2.884 3.628-2.884 6.717 0 2.446.692 4.332 2.074 5.659 1.383 1.327 3.464 1.99 6.244 1.99zm7.852-49.995c0-1.887-.392-3.452-1.175-4.696-.784-1.244-1.753-1.907-2.906-1.99v-7.121c1.494.083 2.887.736 4.181 1.959s2.318 2.882 3.072 4.975c.754 2.094 1.131 4.354 1.131 6.779 0 4.706-1.086 8.438-3.26 11.195s-5.176 4.135-9.006 4.135h-.554c-3.653 0-6.577-1.368-8.773-4.104-2.196-2.737-3.294-6.468-3.294-11.195 0-4.001.832-7.261 2.496-9.779 1.663-2.519 3.848-3.841 6.554-3.965v7.121c-1.375.083-2.506.741-3.393 1.974-.888 1.234-1.331 2.804-1.331 4.712 0 2.446.632 4.332 1.896 5.659s3.183 2 5.756 2.021h.865c2.603 0 4.544-.658 5.823-1.974 1.279-1.317 1.918-3.219 1.918-5.706z"/>
  </g>
</svg>
