<svg xmlns="http://www.w3.org/2000/svg" fill-rule="evenodd" stroke-linejoin="round" stroke-miterlimit="2" clip-rule="evenodd" viewBox="0 0 512 408">
  <g fill="#fff">
    <path d="M98.288.028C98.818.009 99.351 0 99.886 0h312.835c.535 0 1.067.009 1.598.028h2.337c5.41 0 10.821 1.245 16.231 3.736 5.411 2.491 10.323 6.154 14.737 10.99 4.414 4.835 8.045 10.843 10.892 18.023 2.848 7.18 4.272 15.458 4.272 24.836v80.004c0 7.912.997 15.092 2.99 21.539 1.993 6.448 4.627 11.942 7.902 16.485 3.275 4.542 7.048 7.985 11.32 10.33 4.271 2.344 8.685 3.516 13.241 3.516v29.892c-4.556 0-8.97 1.245-13.241 3.736-4.272 2.491-8.045 6.008-11.32 10.55-3.275 4.543-5.909 9.964-7.902 16.265s-2.99 13.261-2.99 20.88v79.564c0 9.378-1.424 17.657-4.272 24.837-2.847 7.179-6.478 13.187-10.892 18.022-4.414 4.836-9.326 8.499-14.737 10.99-5.41 2.491-10.821 3.736-16.231 3.736h-2.007c-.638.027-1.281.041-1.928.041H99.886c-.647 0-1.291-.014-1.929-.041h-2.613c-5.41 0-10.821-1.245-16.231-3.736-5.411-2.491-10.323-6.154-14.737-10.99-4.414-4.835-8.045-10.843-10.892-18.022-2.848-7.18-4.272-15.459-4.272-24.837V270.81c0-7.912-.997-15.092-2.99-21.54-1.993-6.447-4.627-11.868-7.902-16.264s-7.048-7.766-11.32-10.11c-4.271-2.345-8.685-3.517-13.241-3.517v-29.892c4.556 0 8.97-1.245 13.241-3.736 4.272-2.491 8.045-6.008 11.32-10.55s5.909-10.037 7.902-16.484 2.99-13.481 2.99-21.1V57.613c0-9.378 1.424-17.656 4.272-24.836 2.847-7.18 6.478-13.188 10.892-18.023 4.414-4.836 9.326-8.499 14.737-10.99C84.523 1.273 89.934.028 95.344.028h2.944zm79.158 314.277V92.168h74.085c25.663 0 45.129 5.162 58.396 15.486 13.268 10.323 19.902 25.453 19.902 45.388 0 10.883-2.664 20.47-7.99 28.759s-12.735 14.367-22.225 18.232c10.846 2.848 19.392 8.594 25.639 17.24 6.246 8.645 9.369 19.223 9.369 31.733 0 21.36-6.488 37.532-19.465 48.516-12.977 10.985-31.474 16.579-55.491 16.783zm43.579-96.727v59.958h37.333c10.266 0 18.279-2.568 24.042-7.704 5.762-5.137 8.643-12.231 8.643-21.283 0-20.342-10.023-30.666-30.07-30.971zm0-32.344h32.249c21.983-.407 32.975-9.612 32.975-27.615 0-10.069-2.784-17.316-8.353-21.74-5.568-4.425-14.357-6.637-26.365-6.637h-30.506z"/>
    <path fill-rule="nonzero" d="M186.554 262.297h5.834v-5.939h3.992v5.939h13.398c.917 0 1.578-.254 1.985-.762s.61-1.415.61-2.721c0-.87-.074-1.751-.222-2.643h4.17c.34 1.721.51 3.379.51 4.976 0 5.804-2.284 8.706-6.854 8.706H196.38v5.536h-3.992v-5.536h-5.834zm17.612-15.701c-2.351 0-4.47-.653-6.355-1.959s-3.334-3.141-4.347-5.504-1.52-5.079-1.52-8.147c0-4.54 1.043-8.225 3.128-11.055 2.085-2.829 4.85-4.358 8.295-4.586l1.265-.031c2.366 0 4.48.637 6.343 1.912 1.864 1.275 3.305 3.099 4.326 5.473 1.02 2.374 1.53 5.115 1.53 8.225 0 4.747-1.127 8.546-3.382 11.396-2.255 2.851-5.261 4.276-9.017 4.276zm.466-7.556c2.469 0 4.403-.715 5.8-2.146 1.397-1.43 2.096-3.42 2.096-5.97s-.71-4.535-2.129-5.955c-1.42-1.42-3.497-2.13-6.233-2.13-2.425 0-4.348.731-5.767 2.192-1.42 1.462-2.129 3.447-2.129 5.955 0 2.467.698 4.426 2.096 5.877 1.397 1.451 3.486 2.177 6.266 2.177zm-.422-35.07c-3.697 0-6.665-1.202-8.905-3.607-2.241-2.405-3.361-5.628-3.361-9.671 0-3.565.887-6.447 2.662-8.644h-12.288v-7.557h34.07v6.841l-2.485.373c1.952 2.26 2.928 5.276 2.928 9.049 0 3.939-1.131 7.126-3.393 9.562-2.263 2.436-5.339 3.654-9.228 3.654zm.466-7.556c2.44 0 4.344-.658 5.712-1.975 1.368-1.316 2.051-3.187 2.051-5.613 0-3.088-.983-5.348-2.95-6.778h-10.247c-1.923 1.388-2.884 3.627-2.884 6.716 0 2.446.692 4.333 2.074 5.66 1.383 1.326 3.464 1.99 6.244 1.99zm7.852-49.996c0-1.886-.392-3.452-1.175-4.695-.784-1.244-1.753-1.908-2.906-1.991v-7.121c1.493.083 2.887.736 4.181 1.96 1.294 1.223 2.318 2.881 3.072 4.975s1.131 4.353 1.131 6.779c0 4.706-1.087 8.437-3.26 11.194-2.174 2.757-5.176 4.136-9.006 4.136h-.554c-3.653 0-6.577-1.368-8.773-4.105-2.196-2.736-3.294-6.468-3.294-11.194 0-4.001.832-7.261 2.496-9.78 1.663-2.519 3.848-3.84 6.554-3.965v7.121c-1.375.083-2.506.742-3.394 1.975-.887 1.233-1.33 2.804-1.33 4.711 0 2.446.632 4.333 1.896 5.659 1.264 1.327 3.183 2.001 5.756 2.022h.865c2.603 0 4.543-.659 5.823-1.975 1.279-1.316 1.918-3.218 1.918-5.706z"/>
  </g>
</svg>
