<svg clip-rule="evenodd" fill-rule="evenodd" stroke-linejoin="round" stroke-miterlimit="2" viewBox="0 0 612 612" xmlns="http://www.w3.org/2000/svg"><g fill-rule="nonzero"><path d="m612 510c0 56.1-45.9 102-102 102h-408c-56.1 0-102-45.9-102-102v-408c0-56.1 45.9-102 102-102h408c56.1 0 102 45.9 102 102z" fill="#1a73e8"/><path d="m.063 0v-.711h.25c.086 0 .151.017.196.05.044.033.067.081.067.145 0 .035-.009.065-.027.092-.018.026-.043.046-.075.058.037.009.065.028.086.055.021.028.032.062.032.102 0 .068-.022.12-.066.155-.043.035-.105.053-.186.054zm.147-.31v.192h.125c.035 0 .062-.008.081-.024.02-.017.029-.039.029-.068 0-.066-.033-.099-.101-.1zm0-.103h.108c.074-.001.111-.031.111-.088 0-.033-.009-.056-.028-.07s-.048-.021-.088-.021h-.103z" fill="#fff" transform="matrix(559.31868286127 0 0 587.43233501902 122.74509798239 514.81410480345)"/><g fill="#1a73e8"><path d="m.209-.657v.129h.094v.088h-.094v.294c0 .021.004.035.012.044s.023.014.043.014c.014 0 .028-.002.042-.005v.092c-.027.007-.053.011-.078.011-.092 0-.137-.051-.137-.151v-.299h-.087v-.088h.087v-.129z" transform="matrix(0 -119.72928518119 85.40459516325 0 228.02901194296 440.68322683327)"/><path d="m.039-.269c0-.052.01-.098.03-.14.021-.041.05-.073.087-.096.037-.022.08-.033.128-.033.071 0 .129.023.173.069.045.046.069.107.072.182l.001.028c0 .052-.01.099-.03.14s-.049.073-.086.095c-.037.023-.081.034-.129.034-.075 0-.135-.025-.179-.075-.045-.049-.067-.116-.067-.198zm.118.01c0 .055.011.097.034.128.022.031.054.046.094.046s.071-.016.093-.047.034-.077.034-.137c0-.053-.012-.096-.035-.127s-.054-.047-.093-.047-.07.016-.093.046c-.022.031-.034.077-.034.138z" transform="matrix(0 -119.72928518119 85.40459516325 0 228.02901194296 390.70371172244)"/><path d="m.039-.268c0-.081.018-.147.056-.196s.089-.074.152-.074c.056 0 .101.019.136.059v-.271h.118v.75h-.107l-.006-.055c-.035.043-.083.065-.142.065-.062 0-.112-.025-.15-.075s-.057-.117-.057-.203zm.118.01c0 .054.011.096.031.126.021.03.05.045.088.045.049 0 .084-.022.107-.065v-.225c-.022-.043-.057-.064-.106-.064-.038 0-.068.015-.089.046-.02.03-.031.076-.031.137z" transform="matrix(0 -119.72928518119 85.40459516325 0 228.02901194296 310.56379817993)"/><path d="m.278-.085c.029 0 .054-.009.074-.026.019-.017.03-.038.031-.064h.112c-.002.033-.012.064-.031.092-.019.029-.045.051-.078.068-.033.016-.069.025-.107.025-.074 0-.132-.024-.175-.072-.044-.048-.065-.114-.065-.198v-.012c0-.081.021-.145.064-.194.043-.048.102-.072.176-.072.063 0 .114.018.153.055.04.036.061.085.063.144h-.112c-.001-.03-.012-.055-.031-.075-.02-.019-.044-.029-.074-.029-.039 0-.068.014-.089.042s-.031.07-.032.127v.019c0 .057.011.1.031.128.021.028.051.042.09.042z" transform="matrix(0 -119.72928518119 85.40459516325 0 228.02901194296 231.00620924096)"/></g></g></svg>