<?xml version="1.0" encoding="UTF-8" standalone="no"?><!DOCTYPE svg PUBLIC "-//W3C//DTD SVG 1.1//EN" "http://www.w3.org/Graphics/SVG/1.1/DTD/svg11.dtd"><svg width="100%" height="100%" viewBox="0 0 934 934" version="1.1" xmlns="http://www.w3.org/2000/svg" xmlns:xlink="http://www.w3.org/1999/xlink" xml:space="preserve" xmlns:serif="http://www.serif.com/" style="fill-rule:evenodd;clip-rule:evenodd;stroke-linejoin:round;stroke-miterlimit:1.41421;"><path d="M139.333,0.933c-20.4,2.534 -36.133,7.334 -54.266,16.667c-29.467,15.067 -52.4,38 -67.467,67.467c-7.6,15.066 -11.2,24.666 -14.533,40.266c-2.267,10.8 -2.4,27.067 -2.4,341.333c0,314.267 0.133,330.534 2.4,341.334c3.333,15.6 6.933,25.2 14.533,40.266c15.067,29.467 38,52.4 67.467,67.467c15.066,7.6 24.666,11.2 40.266,14.533c10.8,2.267 27.067,2.4 341.333,2.4c314.267,0 330.534,-0.133 341.334,-2.4c15.6,-3.333 25.2,-6.933 40.266,-14.533c29.467,-15.067 52.4,-38 67.467,-67.467c7.6,-15.066 11.2,-24.666 14.533,-40.266c2.267,-10.8 2.4,-27.067 2.4,-341.334c0,-314.266 -0.133,-330.533 -2.4,-341.333c-3.333,-15.6 -6.933,-25.2 -14.533,-40.266c-21.2,-41.6 -58.533,-70.4 -106.4,-81.867c-9.467,-2.267 -26.4,-2.4 -338,-2.667c-180.4,-0.133 -329.733,0.134 -332,0.4Zm420.4,204.8c63.2,12 100.4,40.667 114.133,87.867c6.8,23.733 7.467,57.467 1.467,80.4c-2.667,10 -10.533,27.067 -16.267,35.2c-10.666,15.067 -29.2,30.4 -48,40c-4.666,2.267 -8.4,4.667 -8.4,5.2c0,0.667 3.067,1.867 6.8,2.667c3.734,0.933 11.334,3.466 16.934,5.733c49.6,19.733 77.466,67.2 77.6,132c0,38.133 -12,71.866 -34.267,95.733c-25.067,27.067 -60.267,43.867 -111.067,53.067c-11.333,2 -27.866,2.266 -158.933,2.666l-146.4,0.534l0,-544.267l147.734,0.534c127.333,0.4 149.066,0.8 158.666,2.666Z" style="fill:#4285f4;fill-rule:nonzero;"/><path d="M349.333,355.333l0,75.467l87.067,-0.533c76.266,-0.4 87.866,-0.667 94.266,-2.667c21.067,-6.4 38.267,-19.867 45.867,-36.133c5.867,-12.267 7.467,-20.4 7.467,-37.867c-0.134,-33.467 -10,-53.067 -32.4,-63.6c-18.8,-8.933 -18.934,-8.933 -115.2,-9.6l-87.067,-0.667l0,75.6Zm0,228.667l0,85.466l95.067,-0.4c93.066,-0.4 95.2,-0.533 105.333,-3.466c15.2,-4.267 25.6,-10.267 36.267,-20.934c16.133,-16 22.4,-33.2 22.4,-61.333c0,-27.733 -6.8,-45.733 -23.067,-61.2c-10.533,-9.867 -21.067,-15.467 -37.467,-19.6c-10.8,-2.8 -14,-2.933 -104.799,-3.467l-93.734,-0.666l0,85.6Z" style="fill:#4285f4;fill-rule:nonzero;"/></svg>